<svg width="275" height="130" viewBox="0 0 275 130" fill="none" xmlns="http://www.w3.org/2000/svg">
<g clip-path="url(#clip0_166_2166)">
<rect width="275" height="130" fill="white"/>
<g filter="url(#filter0_d_166_2166)">
<path d="M35.85 90.6C33.95 90.6 31.95 90.45 29.85 90.15C27.75 89.85 26.05 89.45 24.75 88.95C22.65 88.1 21.6 86.675 21.6 84.675C21.6 83.225 22.025 82.075 22.875 81.225C23.775 80.325 25.175 79.875 27.075 79.875C28.375 79.875 29.95 80.05 31.8 80.4C33.65 80.75 35.275 80.925 36.675 80.925C39.775 80.925 42 80.525 43.35 79.725C44.7 78.925 45.375 77.3 45.375 74.85C45.375 73.4 44.85 72.175 43.8 71.175C42.8 70.175 40.775 69.225 37.725 68.325C32.175 66.675 28.15 64.625 25.65 62.175C23.2 59.725 21.975 56.55 21.975 52.65C21.975 49.25 22.725 46.375 24.225 44.025C25.775 41.625 27.9 39.8 30.6 38.55C33.3 37.3 36.375 36.675 39.825 36.675C43.875 36.675 47.225 37.225 49.875 38.325C51.975 39.125 53.025 40.55 53.025 42.6C53.025 44.05 52.575 45.225 51.675 46.125C50.825 46.975 49.45 47.4 47.55 47.4C46.3 47.4 44.95 47.275 43.5 47.025C42.05 46.725 40.625 46.575 39.225 46.575C37.075 46.575 35.45 46.95 34.35 47.7C33.25 48.45 32.7 49.7 32.7 51.45C32.7 53.05 33.475 54.5 35.025 55.8C36.575 57.1 39.425 58.375 43.575 59.625C48.325 61.025 51.6 62.925 53.4 65.325C55.2 67.675 56.1 70.675 56.1 74.325C56.1 79.625 54.325 83.675 50.775 86.475C47.275 89.225 42.3 90.6 35.85 90.6ZM74.4012 85.575C74.4012 88.925 72.6512 90.6 69.1512 90.6C67.4512 90.6 66.1012 90.175 65.1012 89.325C64.1012 88.475 63.6012 87.225 63.6012 85.575V55.875C63.6012 48.975 65.0012 44.05 67.8012 41.1C70.6012 38.15 74.9762 36.675 80.9262 36.675C87.0262 36.675 91.5262 38.175 94.4262 41.175C97.3262 44.175 98.7762 49.075 98.7762 55.875V85.575C98.7762 88.925 97.0262 90.6 93.5262 90.6C91.8262 90.6 90.4762 90.175 89.4762 89.325C88.4762 88.475 87.9762 87.225 87.9762 85.575V67.5C87.0262 68.35 85.9762 69.075 84.8262 69.675C83.7262 70.275 82.4262 70.575 80.9262 70.575C78.7262 70.575 77.0762 70.975 75.9762 71.775C74.9262 72.575 74.4012 74 74.4012 76.05V85.575ZM73.9512 63.6C74.7512 62.8 75.7012 62.175 76.8012 61.725C77.9512 61.275 79.3262 61.05 80.9262 61.05C82.8262 61.05 84.2762 60.9 85.2762 60.6C86.3262 60.3 87.0512 59.725 87.4512 58.875C87.8512 58.025 88.0512 56.775 88.0512 55.125C88.0512 51.425 87.5262 48.9 86.4762 47.55C85.4262 46.15 83.5512 45.45 80.8512 45.45C78.3512 45.45 76.6262 46.175 75.6762 47.625C74.7762 49.025 74.3262 51.625 74.3262 55.425C74.3262 57.375 74.3012 59.025 74.2512 60.375C74.2012 61.725 74.1012 62.8 73.9512 63.6ZM119.592 85.575C119.592 88.925 117.842 90.6 114.342 90.6C112.642 90.6 111.292 90.175 110.292 89.325C109.292 88.475 108.792 87.225 108.792 85.575V54.6C108.792 48.7 110.042 44.25 112.542 41.25C115.092 38.2 118.842 36.675 123.792 36.675C127.442 36.675 130.467 37.425 132.867 38.925C135.267 40.425 136.867 42.575 137.667 45.375C138.467 42.575 140.067 40.425 142.467 38.925C144.867 37.425 147.942 36.675 151.692 36.675C156.792 36.675 160.567 38.15 163.017 41.1C165.467 44 166.692 48.5 166.692 54.6V84.825C166.692 86.875 166.292 88.35 165.492 89.25C164.692 90.15 163.342 90.6 161.442 90.6C159.542 90.6 158.142 90.15 157.242 89.25C156.342 88.3 155.892 86.825 155.892 84.825V54C155.892 49.05 153.767 46.575 149.517 46.575C147.367 46.575 145.767 47.3 144.717 48.75C143.667 50.15 143.142 52.4 143.142 55.5V84.075C143.142 86.125 142.742 87.6 141.942 88.5C141.142 89.4 139.792 89.85 137.892 89.85C135.992 89.85 134.592 89.4 133.692 88.5C132.792 87.55 132.342 86.075 132.342 84.075V55.5C132.342 49.55 130.217 46.575 125.967 46.575C121.717 46.575 119.592 49.05 119.592 54V85.575ZM187.56 85.575C187.56 88.925 185.81 90.6 182.31 90.6C180.61 90.6 179.26 90.175 178.26 89.325C177.26 88.475 176.76 87.225 176.76 85.575V55.875C176.76 48.975 178.16 44.05 180.96 41.1C183.76 38.15 188.135 36.675 194.085 36.675C200.185 36.675 204.685 38.175 207.585 41.175C210.485 44.175 211.935 49.075 211.935 55.875V85.575C211.935 88.925 210.185 90.6 206.685 90.6C204.985 90.6 203.635 90.175 202.635 89.325C201.635 88.475 201.135 87.225 201.135 85.575V67.5C200.185 68.35 199.135 69.075 197.985 69.675C196.885 70.275 195.585 70.575 194.085 70.575C191.885 70.575 190.235 70.975 189.135 71.775C188.085 72.575 187.56 74 187.56 76.05V85.575ZM187.11 63.6C187.91 62.8 188.86 62.175 189.96 61.725C191.11 61.275 192.485 61.05 194.085 61.05C195.985 61.05 197.435 60.9 198.435 60.6C199.485 60.3 200.21 59.725 200.61 58.875C201.01 58.025 201.21 56.775 201.21 55.125C201.21 51.425 200.685 48.9 199.635 47.55C198.585 46.15 196.71 45.45 194.01 45.45C191.51 45.45 189.785 46.175 188.835 47.625C187.935 49.025 187.485 51.625 187.485 55.425C187.485 57.375 187.46 59.025 187.41 60.375C187.36 61.725 187.26 62.8 187.11 63.6ZM237.316 90.6C233.616 90.6 231.766 88.925 231.766 85.575V70.65L216.166 45.075C215.266 43.525 214.916 42.125 215.116 40.875C215.366 39.625 215.941 38.625 216.841 37.875C217.791 37.075 218.866 36.675 220.066 36.675C221.716 36.675 223.016 37.175 223.966 38.175C224.966 39.175 226.091 40.875 227.341 43.275L237.541 61.65C239.541 59.8 241.116 58.25 242.266 57C243.416 55.7 244.241 54.475 244.741 53.325C245.241 52.175 245.491 50.9 245.491 49.5C245.491 48.1 245.341 46.55 245.041 44.85C244.741 43.15 244.591 41.9 244.591 41.1C244.591 39.85 245.116 38.8 246.166 37.95C247.216 37.1 248.491 36.675 249.991 36.675C251.791 36.675 253.166 37.575 254.116 39.375C255.116 41.125 255.616 43.7 255.616 47.1C255.616 49.9 255.241 52.525 254.491 54.975C253.791 57.425 252.491 59.9 250.591 62.4C248.741 64.9 246.066 67.625 242.566 70.575V85.575C242.566 87.275 242.141 88.55 241.291 89.4C240.491 90.2 239.166 90.6 237.316 90.6Z" fill="#579CD9"/>
</g>
</g>
<defs>
<filter id="filter0_d_166_2166" x="17.6001" y="36.675" width="242.016" height="61.925" filterUnits="userSpaceOnUse" color-interpolation-filters="sRGB">
<feFlood flood-opacity="0" result="BackgroundImageFix"/>
<feColorMatrix in="SourceAlpha" type="matrix" values="0 0 0 0 0 0 0 0 0 0 0 0 0 0 0 0 0 0 127 0" result="hardAlpha"/>
<feOffset dy="4"/>
<feGaussianBlur stdDeviation="2"/>
<feComposite in2="hardAlpha" operator="out"/>
<feColorMatrix type="matrix" values="0 0 0 0 0 0 0 0 0 0 0 0 0 0 0 0 0 0 0.99 0"/>
<feBlend mode="normal" in2="BackgroundImageFix" result="effect1_dropShadow_166_2166"/>
<feBlend mode="normal" in="SourceGraphic" in2="effect1_dropShadow_166_2166" result="shape"/>
</filter>
<clipPath id="clip0_166_2166">
<rect width="275" height="130" fill="white"/>
</clipPath>
</defs>
</svg>
